<mxfile host="65bd71144e">
    <diagram name="Climate Health Resilience in LMICs" id="climate-health-lmic">
        <mxGraphModel dx="690" dy="428" grid="1" gridSize="10" guides="1" tooltips="1" connect="1" arrows="1" fold="1" page="1" pageScale="1" pageWidth="1100" pageHeight="850" math="0" shadow="0">
            <root>
                <mxCell id="0"/>
                <mxCell id="1" parent="0"/>
                <mxCell id="2" value="&lt;font style=&quot;font-size: 24px;&quot; face=&quot;Arial&quot;&gt;&lt;b&gt;Climate-Health Impacts &amp;amp; Resilience in Africa&lt;/b&gt;&lt;/font&gt;" style="text;html=1;strokeColor=none;fillColor=none;align=center;verticalAlign=middle;whiteSpace=wrap;rounded=0;fontColor=#00539B;shadow=0;" vertex="1" parent="1">
                    <mxGeometry x="200" y="20" width="700" height="40" as="geometry"/>
                </mxCell>
                <mxCell id="3" value="" style="rounded=1;whiteSpace=wrap;html=1;fillColor=#F5F5F5;strokeColor=#666666;shadow=0;" vertex="1" parent="1">
                    <mxGeometry x="100" y="70" width="900" height="510" as="geometry"/>
                </mxCell>
                <mxCell id="4" value="" style="swimlane;startSize=0;strokeColor=#00539B;fillColor=#E3F2FD;dashed=1;strokeWidth=2;fontColor=#00539B;" vertex="1" parent="1">
                    <mxGeometry x="130" y="100" width="260" height="190" as="geometry"/>
                </mxCell>
                <mxCell id="5" value="&lt;font face=&quot;Arial&quot; style=&quot;font-size: 16px;&quot; color=&quot;#00539b&quot;&gt;&lt;b&gt;Climate Impacts in Africa&lt;/b&gt;&lt;/font&gt;" style="text;html=1;strokeColor=none;fillColor=none;align=center;verticalAlign=middle;whiteSpace=wrap;rounded=0;" vertex="1" parent="4">
                    <mxGeometry x="30" y="10" width="200" height="30" as="geometry"/>
                </mxCell>
                <mxCell id="6" value="&lt;div style=&quot;text-align: left;&quot;&gt;&lt;font face=&quot;Arial&quot;&gt;&lt;span style=&quot;background-color: initial;&quot;&gt;• 19 million Africans affected by&lt;/span&gt;&lt;/font&gt;&lt;/div&gt;&lt;div style=&quot;text-align: left;&quot;&gt;&lt;font face=&quot;Arial&quot;&gt;&lt;span style=&quot;background-color: initial;&quot;&gt;&amp;nbsp; extreme weather in 2022 alone&lt;/span&gt;&lt;/font&gt;&lt;/div&gt;&lt;div style=&quot;text-align: left;&quot;&gt;&lt;font face=&quot;Arial&quot;&gt;&lt;br&gt;&lt;/font&gt;&lt;/div&gt;&lt;div style=&quot;text-align: left;&quot;&gt;&lt;font face=&quot;Arial&quot;&gt;• 4,000+ lives lost&lt;/font&gt;&lt;/div&gt;&lt;div style=&quot;text-align: left;&quot;&gt;&lt;font face=&quot;Arial&quot;&gt;&lt;br&gt;&lt;/font&gt;&lt;/div&gt;&lt;div style=&quot;text-align: left;&quot;&gt;&lt;font face=&quot;Arial&quot;&gt;• Cyclones, floods, droughts, and&lt;/font&gt;&lt;/div&gt;&lt;div style=&quot;text-align: left;&quot;&gt;&lt;font face=&quot;Arial&quot;&gt;&amp;nbsp; heatwaves increasing in frequency&lt;/font&gt;&lt;/div&gt;&lt;div style=&quot;text-align: left;&quot;&gt;&lt;font face=&quot;Arial&quot;&gt;&amp;nbsp; and intensity&lt;/font&gt;&lt;/div&gt;" style="text;html=1;strokeColor=none;fillColor=none;align=center;verticalAlign=middle;whiteSpace=wrap;rounded=0;" vertex="1" parent="4">
                    <mxGeometry y="50" width="260" height="130" as="geometry"/>
                </mxCell>
                <mxCell id="7" value="" style="swimlane;startSize=0;strokeColor=#228B22;fillColor=#E8F5E9;dashed=1;strokeWidth=2;fontColor=#228B22;" vertex="1" parent="1">
                    <mxGeometry x="130" y="310" width="260" height="220" as="geometry"/>
                </mxCell>
                <mxCell id="8" value="&lt;font face=&quot;Arial&quot; style=&quot;font-size: 16px;&quot; color=&quot;#228b22&quot;&gt;&lt;b&gt;Health System Impacts&lt;/b&gt;&lt;/font&gt;" style="text;html=1;strokeColor=none;fillColor=none;align=center;verticalAlign=middle;whiteSpace=wrap;rounded=0;" vertex="1" parent="7">
                    <mxGeometry x="30" y="10" width="200" height="30" as="geometry"/>
                </mxCell>
                <mxCell id="9" value="&lt;div style=&quot;text-align: left;&quot;&gt;&lt;font face=&quot;Arial&quot;&gt;• Healthcare contributes 4-5% of&lt;/font&gt;&lt;/div&gt;&lt;div style=&quot;text-align: left;&quot;&gt;&lt;font face=&quot;Arial&quot;&gt;&amp;nbsp; global GHG emissions&lt;/font&gt;&lt;/div&gt;&lt;div style=&quot;text-align: left;&quot;&gt;&lt;font face=&quot;Arial&quot;&gt;&lt;br&gt;&lt;/font&gt;&lt;/div&gt;&lt;div style=&quot;text-align: left;&quot;&gt;&lt;font face=&quot;Arial&quot;&gt;• Damaged infrastructure:&lt;/font&gt;&lt;/div&gt;&lt;div style=&quot;text-align: left;&quot;&gt;&lt;font face=&quot;Arial&quot;&gt;&amp;nbsp; - Water supplies&lt;/font&gt;&lt;/div&gt;&lt;div style=&quot;text-align: left;&quot;&gt;&lt;font face=&quot;Arial&quot;&gt;&amp;nbsp; - Sanitation systems&lt;/font&gt;&lt;/div&gt;&lt;div style=&quot;text-align: left;&quot;&gt;&lt;font face=&quot;Arial&quot;&gt;&amp;nbsp; - Healthcare facilities&lt;/font&gt;&lt;/div&gt;&lt;div style=&quot;text-align: left;&quot;&gt;&lt;font face=&quot;Arial&quot;&gt;&lt;br&gt;&lt;/font&gt;&lt;/div&gt;&lt;div style=&quot;text-align: left;&quot;&gt;&lt;font face=&quot;Arial&quot;&gt;• Interrupted service delivery&lt;/font&gt;&lt;/div&gt;&lt;div style=&quot;text-align: left;&quot;&gt;&lt;font face=&quot;Arial&quot;&gt;• Unreliable energy for clinical equipment&lt;/font&gt;&lt;/div&gt;" style="text;html=1;strokeColor=none;fillColor=none;align=center;verticalAlign=middle;whiteSpace=wrap;rounded=0;" vertex="1" parent="7">
                    <mxGeometry y="40" width="260" height="170" as="geometry"/>
                </mxCell>
                <mxCell id="10" value="" style="swimlane;startSize=0;strokeColor=#B22222;fillColor=#FFEBEE;dashed=1;strokeWidth=2;fontColor=#B22222;" vertex="1" parent="1">
                    <mxGeometry x="420" y="100" width="260" height="220" as="geometry"/>
                </mxCell>
                <mxCell id="11" value="&lt;font face=&quot;Arial&quot; style=&quot;font-size: 16px;&quot; color=&quot;#b22222&quot;&gt;&lt;b&gt;Health Consequences&lt;/b&gt;&lt;/font&gt;" style="text;html=1;strokeColor=none;fillColor=none;align=center;verticalAlign=middle;whiteSpace=wrap;rounded=0;" vertex="1" parent="10">
                    <mxGeometry x="30" y="10" width="200" height="30" as="geometry"/>
                </mxCell>
                <mxCell id="12" value="&lt;div style=&quot;text-align: left;&quot;&gt;&lt;font face=&quot;Arial&quot;&gt;• Increased infectious disease outbreaks:&lt;/font&gt;&lt;/div&gt;&lt;div style=&quot;text-align: left;&quot;&gt;&lt;font face=&quot;Arial&quot;&gt;&amp;nbsp; - Vector-borne (malaria, dengue)&lt;/font&gt;&lt;/div&gt;&lt;div style=&quot;text-align: left;&quot;&gt;&lt;font face=&quot;Arial&quot;&gt;&amp;nbsp; - Water-borne (cholera, typhoid)&lt;/font&gt;&lt;/div&gt;&lt;div style=&quot;text-align: left;&quot;&gt;&lt;font face=&quot;Arial&quot;&gt;&lt;br&gt;&lt;/font&gt;&lt;/div&gt;&lt;div style=&quot;text-align: left;&quot;&gt;&lt;font face=&quot;Arial&quot;&gt;• Worsened nutrition from crop failures&lt;/font&gt;&lt;/div&gt;&lt;div style=&quot;text-align: left;&quot;&gt;&lt;font face=&quot;Arial&quot;&gt;&lt;br&gt;&lt;/font&gt;&lt;/div&gt;&lt;div style=&quot;text-align: left;&quot;&gt;&lt;font face=&quot;Arial&quot;&gt;• Heat-related illnesses and mortality&lt;/font&gt;&lt;/div&gt;&lt;div style=&quot;text-align: left;&quot;&gt;&lt;font face=&quot;Arial&quot;&gt;&lt;br&gt;&lt;/font&gt;&lt;/div&gt;&lt;div style=&quot;text-align: left;&quot;&gt;&lt;font face=&quot;Arial&quot;&gt;• Mental health crises from displacement&lt;/font&gt;&lt;/div&gt;&lt;div style=&quot;text-align: left;&quot;&gt;&lt;font face=&quot;Arial&quot;&gt;&amp;nbsp; and climate disasters&lt;/font&gt;&lt;/div&gt;" style="text;html=1;strokeColor=none;fillColor=none;align=center;verticalAlign=middle;whiteSpace=wrap;rounded=0;" vertex="1" parent="10">
                    <mxGeometry y="40" width="260" height="170" as="geometry"/>
                </mxCell>
                <mxCell id="13" value="" style="swimlane;startSize=0;strokeColor=#FF8C00;fillColor=#FFF3E0;dashed=1;strokeWidth=2;fontColor=#FF8C00;" vertex="1" parent="1">
                    <mxGeometry x="420" y="340" width="260" height="190" as="geometry"/>
                </mxCell>
                <mxCell id="14" value="&lt;font face=&quot;Arial&quot; style=&quot;font-size: 16px;&quot; color=&quot;#ff8c00&quot;&gt;&lt;b&gt;Research &amp;amp; Trial Implications&lt;/b&gt;&lt;/font&gt;" style="text;html=1;strokeColor=none;fillColor=none;align=center;verticalAlign=middle;whiteSpace=wrap;rounded=0;" vertex="1" parent="13">
                    <mxGeometry x="30" y="10" width="200" height="30" as="geometry"/>
                </mxCell>
                <mxCell id="15" value="&lt;div style=&quot;text-align: left;&quot;&gt;&lt;font face=&quot;Arial&quot;&gt;• Participant retention challenges&lt;/font&gt;&lt;/div&gt;&lt;div style=&quot;text-align: left;&quot;&gt;&lt;font face=&quot;Arial&quot;&gt;&lt;br&gt;&lt;/font&gt;&lt;/div&gt;&lt;div style=&quot;text-align: left;&quot;&gt;&lt;font face=&quot;Arial&quot;&gt;• Transportation disruptions&lt;/font&gt;&lt;/div&gt;&lt;div style=&quot;text-align: left;&quot;&gt;&lt;font face=&quot;Arial&quot;&gt;&lt;br&gt;&lt;/font&gt;&lt;/div&gt;&lt;div style=&quot;text-align: left;&quot;&gt;&lt;font face=&quot;Arial&quot;&gt;• Supply chain interruptions&lt;/font&gt;&lt;/div&gt;&lt;div style=&quot;text-align: left;&quot;&gt;&lt;font face=&quot;Arial&quot;&gt;&lt;br&gt;&lt;/font&gt;&lt;/div&gt;&lt;div style=&quot;text-align: left;&quot;&gt;&lt;font face=&quot;Arial&quot;&gt;• Power outages affecting lab samples&lt;/font&gt;&lt;/div&gt;&lt;div style=&quot;text-align: left;&quot;&gt;&lt;font face=&quot;Arial&quot;&gt;&amp;nbsp; and equipment&lt;/font&gt;&lt;/div&gt;" style="text;html=1;strokeColor=none;fillColor=none;align=center;verticalAlign=middle;whiteSpace=wrap;rounded=0;" vertex="1" parent="13">
                    <mxGeometry y="40" width="260" height="140" as="geometry"/>
                </mxCell>
                <mxCell id="16" value="" style="rounded=1;whiteSpace=wrap;html=1;strokeWidth=2;fillColor=#00539B;strokeColor=#00539B;fontColor=#FFFFFF;shadow=1;" vertex="1" parent="1">
                    <mxGeometry x="710" y="100" width="260" height="430" as="geometry"/>
                </mxCell>
                <mxCell id="17" value="&lt;font face=&quot;Arial&quot; style=&quot;font-size: 18px;&quot; color=&quot;#ffffff&quot;&gt;&lt;b&gt;Building Resilience:&lt;br&gt;Priority Actions&lt;/b&gt;&lt;/font&gt;" style="text;html=1;strokeColor=none;fillColor=none;align=center;verticalAlign=middle;whiteSpace=wrap;rounded=0;" vertex="1" parent="1">
                    <mxGeometry x="710" y="110" width="260" height="50" as="geometry"/>
                </mxCell>
                <mxCell id="18" value="" style="rounded=0;whiteSpace=wrap;html=1;strokeColor=none;fillColor=#E3F2FD;shadow=1;" vertex="1" parent="1">
                    <mxGeometry x="730" y="170" width="220" height="70" as="geometry"/>
                </mxCell>
                <mxCell id="19" value="&lt;font face=&quot;Arial&quot; style=&quot;font-size: 14px;&quot;&gt;&lt;b&gt;Disease Surveillance Systems&lt;/b&gt;&lt;/font&gt;" style="text;html=1;strokeColor=none;fillColor=none;align=center;verticalAlign=middle;whiteSpace=wrap;rounded=0;fontColor=#00539B;" vertex="1" parent="1">
                    <mxGeometry x="730" y="180" width="220" height="30" as="geometry"/>
                </mxCell>
                <mxCell id="20" value="&lt;font face=&quot;Arial&quot;&gt;Monitoring climate-sensitive diseases&lt;/font&gt;" style="text;html=1;strokeColor=none;fillColor=none;align=center;verticalAlign=middle;whiteSpace=wrap;rounded=0;fontColor=#000000;" vertex="1" parent="1">
                    <mxGeometry x="765" y="210" width="150" height="20" as="geometry"/>
                </mxCell>
                <mxCell id="21" value="" style="rounded=0;whiteSpace=wrap;html=1;strokeColor=none;fillColor=#E8F5E9;shadow=1;" vertex="1" parent="1">
                    <mxGeometry x="730" y="250" width="220" height="70" as="geometry"/>
                </mxCell>
                <mxCell id="22" value="&lt;font face=&quot;Arial&quot; style=&quot;font-size: 14px;&quot; color=&quot;#228b22&quot;&gt;&lt;b&gt;Early Warning Systems&lt;/b&gt;&lt;/font&gt;" style="text;html=1;strokeColor=none;fillColor=none;align=center;verticalAlign=middle;whiteSpace=wrap;rounded=0;" vertex="1" parent="1">
                    <mxGeometry x="730" y="260" width="220" height="30" as="geometry"/>
                </mxCell>
                <mxCell id="23" value="&lt;font face=&quot;Arial&quot;&gt;Weather alerts and preparedness planning&lt;/font&gt;" style="text;html=1;strokeColor=none;fillColor=none;align=center;verticalAlign=middle;whiteSpace=wrap;rounded=0;fontColor=#000000;" vertex="1" parent="1">
                    <mxGeometry x="765" y="290" width="150" height="20" as="geometry"/>
                </mxCell>
                <mxCell id="24" value="" style="rounded=0;whiteSpace=wrap;html=1;strokeColor=none;fillColor=#FFEBEE;shadow=1;" vertex="1" parent="1">
                    <mxGeometry x="730" y="330" width="220" height="70" as="geometry"/>
                </mxCell>
                <mxCell id="25" value="&lt;font face=&quot;Arial&quot; style=&quot;font-size: 14px;&quot; color=&quot;#b22222&quot;&gt;&lt;b&gt;Healthcare Infrastructure&lt;/b&gt;&lt;/font&gt;" style="text;html=1;strokeColor=none;fillColor=none;align=center;verticalAlign=middle;whiteSpace=wrap;rounded=0;" vertex="1" parent="1">
                    <mxGeometry x="730" y="340" width="220" height="30" as="geometry"/>
                </mxCell>
                <mxCell id="26" value="&lt;font face=&quot;Arial&quot;&gt;Climate-resilient facilities with sustainable energy&lt;/font&gt;" style="text;html=1;strokeColor=none;fillColor=none;align=center;verticalAlign=middle;whiteSpace=wrap;rounded=0;fontColor=#000000;" vertex="1" parent="1">
                    <mxGeometry x="765" y="370" width="150" height="20" as="geometry"/>
                </mxCell>
                <mxCell id="27" value="" style="rounded=0;whiteSpace=wrap;html=1;strokeColor=none;fillColor=#FFF3E0;shadow=1;" vertex="1" parent="1">
                    <mxGeometry x="730" y="410" width="220" height="70" as="geometry"/>
                </mxCell>
                <mxCell id="28" value="&lt;font face=&quot;Arial&quot; style=&quot;font-size: 14px;&quot; color=&quot;#ff8c00&quot;&gt;&lt;b&gt;Public Education&lt;/b&gt;&lt;/font&gt;" style="text;html=1;strokeColor=none;fillColor=none;align=center;verticalAlign=middle;whiteSpace=wrap;rounded=0;" vertex="1" parent="1">
                    <mxGeometry x="730" y="420" width="220" height="30" as="geometry"/>
                </mxCell>
                <mxCell id="29" value="&lt;font face=&quot;Arial&quot;&gt;Community engagement on climate-health risks&lt;/font&gt;" style="text;html=1;strokeColor=none;fillColor=none;align=center;verticalAlign=middle;whiteSpace=wrap;rounded=0;fontColor=#000000;" vertex="1" parent="1">
                    <mxGeometry x="765" y="450" width="150" height="20" as="geometry"/>
                </mxCell>
                <mxCell id="30" value="&lt;font style=&quot;font-size: 16px;&quot; face=&quot;Arial&quot; color=&quot;#00539b&quot;&gt;&lt;i&gt;Climate justice recognizes that those least responsible for climate change often face the greatest impacts&lt;/i&gt;&lt;/font&gt;" style="text;html=1;strokeColor=none;fillColor=none;align=center;verticalAlign=middle;whiteSpace=wrap;rounded=0;" vertex="1" parent="1">
                    <mxGeometry x="200" y="540" width="700" height="30" as="geometry"/>
                </mxCell>
                <mxCell id="31" value="&lt;font color=&quot;#666666&quot; style=&quot;font-size: 11px;&quot; face=&quot;Arial&quot;&gt;&lt;i&gt;Sources: PMC, 2023; WHO, 2020; Sustainable Earth Reviews, 2024&lt;/i&gt;&lt;/font&gt;" style="text;html=1;strokeColor=none;fillColor=none;align=right;verticalAlign=middle;whiteSpace=wrap;rounded=0;" vertex="1" parent="1">
                    <mxGeometry x="630" y="570" width="340" height="20" as="geometry"/>
                </mxCell>
                <mxCell id="32" value="" style="shape=flexArrow;endArrow=classic;html=1;rounded=0;endWidth=12;endSize=4.67;width=10;fillColor=#00539B;strokeColor=none;" edge="1" parent="1">
                    <mxGeometry width="50" height="50" relative="1" as="geometry">
                        <mxPoint x="660" y="209.8" as="sourcePoint"/>
                        <mxPoint x="710" y="209.8" as="targetPoint"/>
                    </mxGeometry>
                </mxCell>
                <mxCell id="33" value="" style="shape=flexArrow;endArrow=classic;html=1;rounded=0;endWidth=12;endSize=4.67;width=10;fillColor=#00539B;strokeColor=none;" edge="1" parent="1">
                    <mxGeometry width="50" height="50" relative="1" as="geometry">
                        <mxPoint x="660" y="344.8" as="sourcePoint"/>
                        <mxPoint x="710" y="344.8" as="targetPoint"/>
                    </mxGeometry>
                </mxCell>
                <mxCell id="34" value="" style="shape=flexArrow;endArrow=classic;html=1;rounded=0;endWidth=12;endSize=4.67;width=10;fillColor=#00539B;strokeColor=none;" edge="1" parent="1">
                    <mxGeometry width="50" height="50" relative="1" as="geometry">
                        <mxPoint x="660" y="284.8" as="sourcePoint"/>
                        <mxPoint x="710" y="284.8" as="targetPoint"/>
                    </mxGeometry>
                </mxCell>
                <mxCell id="35" value="" style="shape=flexArrow;endArrow=classic;html=1;rounded=0;endWidth=12;endSize=4.67;width=10;fillColor=#00539B;strokeColor=none;" edge="1" parent="1">
                    <mxGeometry width="50" height="50" relative="1" as="geometry">
                        <mxPoint x="660" y="430" as="sourcePoint"/>
                        <mxPoint x="710" y="430" as="targetPoint"/>
                    </mxGeometry>
                </mxCell>
            </root>
        </mxGraphModel>
    </diagram>
</mxfile>
